<svg xmlns="http://www.w3.org/2000/svg" width="1126" height="1024"><path fill="#ababab" d="M0 0h1126.4v1024H0z"/><path fill="#1c2225" d="M-2560-665.6h32768v140339.2H-2560z"/><path fill="#ecd979" d="M1124.89 1010.074h-35.098V974.49h35.123v35.584zm-35.124 0h-35.149V974.49h35.149v35.584zm-140.518 0h-35.149V974.49h35.123v35.584zm-35.149 0h-35.123V974.49h35.123v35.584zm-35.123 0h-35.149V974.49h35.149v35.584zm-210.816 0h-35.123V974.49h35.149v35.584zm-210.765 0h-35.123V974.49h35.123v35.584zm-210.765 0h-35.174V974.49h35.149v35.584z"/><path fill="#ecd979" d="M211.482 1010.074h-35.123V974.49h35.098v35.584zm-35.124 0h-35.123V974.49h35.123v35.584zm-140.518 0H.691V974.49H35.84v35.584zm1089.05-35.61h-35.098v-35.61h35.123v35.61zm-140.519 0h-35.123v-35.61h35.123v35.61zm-35.123 0h-35.149v-35.61h35.123v35.61zm-35.149 0h-35.123v-35.61h35.123v35.61zm-245.939 0h-35.123v-35.61h35.149v35.61zm-35.123 0h-35.123v-35.61h35.123v35.61zm-140.493 0h-35.149v-35.61h35.123v35.61z"/><path fill="#ecd979" d="M457.395 974.464h-35.123v-35.61h35.123v35.61zm-245.913 0h-35.123v-35.61h35.098v35.61zm-35.124 0h-35.123v-35.61h35.123v35.61zm-35.148 0h-35.123v-35.61h35.123v35.61zm878.284-35.61h-35.123v-35.61h35.123v35.584zm-35.123 0h-35.123v-35.61h35.123v35.584zm-35.123 0h-35.149v-35.61h35.123v35.584zm-281.088 0h-35.123v-35.61h35.149v35.584zm-35.123 0h-35.123v-35.61h35.123v35.584zm-35.123 0h-35.123v-35.61h35.123v35.584zm-70.247 0h-35.123v-35.61h35.123v35.584zm-35.123 0h-35.149v-35.61h35.123v35.584z"/><path fill="#ecd979" d="M457.395 938.854h-35.123v-35.61h35.123v35.584zm-281.037 0h-35.123v-35.61h35.123v35.584zm-35.148 0h-35.123v-35.61h35.123v35.584zm-35.124 0H70.963v-35.61h35.123v35.584zm948.557-35.609h-35.149v-35.661h35.149v35.635zm-35.149 0h-35.123v-35.661h35.123v35.635zm-35.123 0h-35.123v-35.661h35.123v35.635zm-175.667 0h-35.123v-35.661h35.123v35.635zm-35.123 0h-35.123v-35.661h35.123v35.635zm-35.123 0h-35.149v-35.661h35.149v35.635zm-105.421 0h-35.123v-35.661h35.123v35.635zm-35.123 0h-35.123v-35.661h35.123v35.635zm-70.247 0h-35.123v-35.661h35.123v35.635zm-35.123 0h-35.149v-35.661h35.123v35.635zm-105.395 0H352v-35.661h35.123v35.635zm-35.149 0h-35.123v-35.661H352v35.635zm-35.123 0h-35.123v-35.661h35.123v35.635zm-175.667 0h-35.123v-35.661h35.123v35.635zm-35.124 0H70.963v-35.661h35.123v35.635z"/><path fill="#ecd979" d="M70.963 903.245H35.814v-35.661h35.149v35.635zm1018.803-35.635h-35.149V832h35.149v35.61z"/><path fill="#ecd979" d="M1054.643 867.61h-35.149V832h35.149v35.61zm-35.149 0h-35.123V832h35.123v35.61zm-245.913 0h-35.123V832h35.123v35.61zm-35.123 0h-35.149V832h35.149v35.61zm-35.149 0h-35.123V832h35.123v35.61zm-105.395 0h-35.123V832h35.123v35.61zm-70.247 0h-35.123V832h35.123v35.61zm-105.395 0h-35.123V832h35.123v35.61zm-35.123 0H352V832h35.123v35.61zm-35.149 0h-35.123V832H352v35.61zm-245.914 0H70.963V832h35.123v35.61zM70.963 867.61H35.814V832h35.149v35.61z"/><path fill="#ecd979" d="M35.84 867.61H.691V832H35.84v35.61zM1089.766 832h-35.149v-35.61h35.149V832z"/><path fill="#ecd979" d="M1054.643 832h-35.149v-35.61h35.149V832zm-316.185 0h-35.149v-35.61h35.149V832zm-35.149 0h-35.123v-35.61h35.123V832zM668.16 832h-35.123v-35.61h35.149V832zm-210.765 0h-35.123v-35.61h35.123V832zm-35.123 0h-35.123v-35.61h35.123V832zm-35.123 0H352v-35.61h35.123V832zm-316.186 0H35.814v-35.61h35.149V832z"/><path fill="#ecd979" d="M35.84 832H.691v-35.61H35.84V832zm1053.926-35.61h-35.149v-35.635h35.149v35.635zm-175.667 0h-35.123v-35.635h35.123v35.635zm-316.185 0h-35.123v-35.635h35.123v35.635zm-70.247 0h-35.123v-35.635h35.123v35.635zm-316.185 0h-35.123v-35.635h35.098v35.635zm-175.642 0H.691v-35.635H35.84v35.635zm878.259-35.635h-35.123v-35.584h35.123v35.584zm-35.123 0h-35.149v-35.584h35.149v35.584zm-245.939 0h-35.123v-35.584h35.123v35.584zm-35.123 0h-35.123v-35.584h35.123v35.584zm-70.247 0h-35.123v-35.584h35.123v35.584zm-35.123 0h-35.149v-35.584h35.123v35.584zm-245.914 0h-35.174v-35.584h35.149v35.584z"/><path fill="#ecd979" d="M211.482 760.755h-35.123v-35.584h35.098v35.584zm702.617-35.609h-35.123v-35.61h35.123v35.61zm-35.123 0h-35.149v-35.61h35.149v35.61z"/><path fill="#ecd979" d="M843.853 725.146h-35.149v-35.61h35.149v35.61zm-175.693 0h-35.123v-35.61h35.149v35.61zm-35.123 0h-35.123v-35.61h35.123v35.61zm-140.493 0h-35.149v-35.61h35.123v35.61z"/><path fill="#ecd979" d="M457.395 725.146h-35.123v-35.61h35.123v35.61zm-175.641 0h-35.149v-35.61h35.149v35.61z"/><path fill="#ecd979" d="M246.63 725.146h-35.174v-35.61h35.149v35.61z"/><path fill="#ecd979" d="M211.482 725.146h-35.123v-35.61h35.098v35.61zm667.494-35.61h-35.149v-35.61h35.149v35.584z"/><path fill="#ecd979" d="M843.853 689.536h-35.149v-35.61h35.149v35.584zm-140.544 0h-35.123v-35.61h35.123v35.584zM668.16 689.536h-35.123v-35.61h35.149v35.584zm-210.765 0h-35.123v-35.61h35.123v35.584zm-35.123 0h-35.123v-35.61h35.123v35.584zm-140.518 0h-35.149v-35.61h35.149v35.584z"/><path fill="#ecd979" d="M246.63 689.536h-35.174v-35.61h35.149v35.584zm772.864-35.61h-35.123v-35.635h35.123v35.635zm-35.123 0h-35.123v-35.635h35.123v35.635zm-35.123 0h-35.149v-35.635h35.123v35.635zm-105.395 0h-35.149v-35.635h35.149v35.635zm-105.395 0h-35.149v-35.635h35.149v35.635zm-35.149 0h-35.123v-35.635h35.123v35.635zm-281.037 0h-35.123v-35.635h35.123v35.635zm-35.123 0H352v-35.635h35.123v35.635z"/><path fill="#ecd979" d="M281.754 653.926h-35.149v-35.635h35.149v35.635zm-105.396 0h-35.123v-35.635h35.123v35.635zm-35.148 0h-35.123v-35.635h35.123v35.635zm-35.124 0H70.963v-35.635h35.123v35.635zm1018.804-35.635h-35.098v-35.61h35.123v35.61zm-140.519 0h-35.123v-35.61h35.123v35.61zm-35.123 0h-35.149v-35.61h35.123v35.61zm-35.149 0h-35.123v-35.61h35.123v35.61zm-140.518 0h-35.123v-35.61h35.123v35.61zm-35.123 0h-35.149v-35.61h35.149v35.61zm-351.309 0H352v-35.61h35.123v35.61zm-35.149 0h-35.123v-35.61H352v35.61zm-140.518 0h-35.123v-35.61h35.098v35.61zm-35.124 0h-35.123v-35.61h35.123v35.61zm-35.148 0h-35.123v-35.61h35.123v35.61zm983.68-35.635h-35.098v-35.584h35.123v35.584zm-35.124 0h-35.149v-35.584h35.149v35.584zm-140.518 0h-35.149v-35.584h35.123v35.584zm-35.149 0h-35.123v-35.584h35.123v35.584zm-35.123 0h-35.149v-35.584h35.149v35.584zm-70.272 0h-35.123v-35.584h35.123v35.584zm-35.123 0h-35.123v-35.584h35.123v35.584zm-210.791 0h-35.123v-35.584h35.123v35.584zm-210.79 0h-35.123v-35.584H352v35.584zm-35.123 0h-35.123v-35.584h35.123v35.584zm-70.247 0h-35.174v-35.584h35.149v35.584z"/><path fill="#ecd979" d="M211.482 582.656h-35.123v-35.584h35.098v35.584zm-35.124 0h-35.123v-35.584h35.123v35.584zM35.123 547.072H0v-35.635h35.123v35.635zm35.84 0H35.814v-35.635h35.149v35.635zm-35.84 35.584H0v-35.584h35.123v35.584zm0-71.219H0v-35.61h35.123v35.61zm1089.767 35.635h-35.098v-35.635h35.123v35.635zm-35.124 0h-35.149v-35.635h35.149v35.635z"/><path fill="#ecd979" d="M1054.643 547.072h-35.149v-35.635h35.149v35.635zm-456.729 0h-35.123v-35.635h35.123v35.635zm-35.124 0h-35.123v-35.635h35.123v35.635zm-35.123 0h-35.123v-35.635h35.123v35.635zm597.223-35.635h-35.098v-35.61h35.123v35.61zm-35.124 0h-35.149v-35.61h35.149v35.61zm-140.518 0h-35.149v-35.61h35.123v35.61zm-35.149 0h-35.123v-35.61h35.123v35.61zm-35.123 0h-35.149v-35.61h35.149v35.61zm-70.272 0h-35.123v-35.61h35.123v35.61zm-35.123 0h-35.123v-35.61h35.123v35.61zm-210.791 0h-35.123v-35.61h35.123v35.61zm-210.79 0h-35.123v-35.61H352v35.61zm-35.123 0h-35.123v-35.61h35.123v35.61zm-70.247 0h-35.174v-35.61h35.149v35.61z"/><path fill="#ecd979" d="M211.482 511.437h-35.123v-35.61h35.098v35.61zm-35.124 0h-35.123v-35.61h35.123v35.61zm948.532-35.61h-35.098v-35.61h35.123v35.584zm-140.519 0h-35.123v-35.61h35.123v35.584zm-35.123 0h-35.149v-35.61h35.123v35.584zm-35.149 0h-35.123v-35.61h35.123v35.584zm-140.518 0h-35.123v-35.61h35.123v35.584zm-35.123 0h-35.149v-35.61h35.149v35.584zm-351.309 0H352v-35.61h35.123v35.584zm-35.149 0h-35.123v-35.61H352v35.584zm-140.518 0h-35.123v-35.61h35.098v35.584zm-35.124 0h-35.123v-35.61h35.123v35.584zm-35.148 0h-35.123v-35.61h35.123v35.584zm878.284-35.609h-35.123v-35.635h35.123v35.635z"/><path fill="#ecd979" d="M984.371 440.218h-35.123v-35.635h35.123v35.635zm-35.123 0h-35.149v-35.635h35.123v35.635zm-105.395 0h-35.149v-35.635h35.149v35.635zm-105.395 0h-35.149v-35.635h35.149v35.635zm-35.149 0h-35.123v-35.635h35.123v35.635zm-281.037 0h-35.123v-35.635h35.123v35.635zm-35.123 0H352v-35.635h35.123v35.635zm-105.395 0h-35.149v-35.635h35.149v35.635zm-105.396 0h-35.123v-35.635h35.123v35.635zm-35.148 0h-35.123v-35.635h35.123v35.635zm-35.124 0H70.963v-35.635h35.123v35.635zm772.89-35.636h-35.149v-35.61h35.149v35.61z"/><path fill="#ecd979" d="M843.853 404.582h-35.149v-35.61h35.149v35.61zm-140.544 0h-35.123v-35.61h35.123v35.61zM668.16 404.582h-35.123v-35.61h35.149v35.61zm-210.765 0h-35.123v-35.61h35.123v35.61zm-35.123 0h-35.123v-35.61h35.123v35.61zm-140.518 0h-35.149v-35.61h35.149v35.61z"/><path fill="#ecd979" d="M246.63 404.582h-35.174v-35.61h35.149v35.61zm667.469-35.609h-35.123v-35.61h35.123v35.61zm-35.123 0h-35.149v-35.61h35.149v35.61z"/><path fill="#ecd979" d="M843.853 368.973h-35.149v-35.61h35.149v35.61zm-175.693 0h-35.123v-35.61h35.149v35.61zm-35.123 0h-35.123v-35.61h35.123v35.61zm-140.493 0h-35.149v-35.61h35.123v35.61z"/><path fill="#ecd979" d="M457.395 368.973h-35.123v-35.61h35.123v35.61zm-175.641 0h-35.149v-35.61h35.149v35.61z"/><path fill="#ecd979" d="M246.63 368.973h-35.174v-35.61h35.149v35.61z"/><path fill="#ecd979" d="M211.482 368.973h-35.123v-35.61h35.098v35.61zm702.617-35.61h-35.123v-35.635h35.123v35.635zm-35.123 0h-35.149v-35.635h35.149v35.635zm-245.939 0h-35.123v-35.635h35.123v35.635zm-35.123 0h-35.123v-35.635h35.123v35.635zm-70.247 0h-35.123v-35.635h35.123v35.635zm-35.123 0h-35.149v-35.635h35.123v35.635zm-245.914 0h-35.174v-35.635h35.149v35.635z"/><path fill="#ecd979" d="M211.482 333.363h-35.123v-35.635h35.098v35.635zm702.617-35.635h-35.123v-35.584h35.123v35.584zm-316.185 0h-35.123v-35.584h35.123v35.584zm-70.247 0h-35.123v-35.584h35.123v35.584zm-316.185 0h-35.123v-35.584h35.098v35.584zm878.284-35.584h-35.149v-35.661h35.149v35.61zm-1053.926 0H.691v-35.661H35.84v35.61z"/><path fill="#ecd979" d="M1089.766 226.509h-35.149v-35.635h35.149v35.635z"/><path fill="#ecd979" d="M1054.643 226.509h-35.149v-35.635h35.149v35.635zm-316.185 0h-35.149v-35.635h35.149v35.635zm-35.149 0h-35.123v-35.635h35.123v35.635zM668.16 226.509h-35.123v-35.635h35.149v35.635zm-210.765 0h-35.123v-35.635h35.123v35.635zm-35.123 0h-35.123v-35.635h35.123v35.635zm-35.123 0H352v-35.635h35.123v35.635zm-316.186 0H35.814v-35.635h35.149v35.635z"/><path fill="#ecd979" d="M35.84 226.509H.691v-35.635H35.84v35.635zm1053.926-35.61h-35.149v-35.635h35.149v35.635z"/><path fill="#ecd979" d="M1054.643 190.899h-35.149v-35.635h35.149v35.635zm-35.149 0h-35.123v-35.635h35.123v35.635zm-245.913 0h-35.123v-35.635h35.123v35.635zm-35.123 0h-35.149v-35.635h35.149v35.635zm-35.149 0h-35.123v-35.635h35.123v35.635zm-105.395 0h-35.123v-35.635h35.123v35.635zm-70.247 0h-35.123v-35.635h35.123v35.635zm-105.395 0h-35.123v-35.635h35.123v35.635zm-35.123 0H352v-35.635h35.123v35.635zm-35.149 0h-35.123v-35.635H352v35.635zm-245.914 0H70.963v-35.635h35.123v35.635zM70.963 190.899H35.814v-35.635h35.149v35.635z"/><path fill="#ecd979" d="M35.84 190.899H.691v-35.635H35.84v35.635zm1018.803-35.635h-35.149v-35.61h35.149v35.61zm-35.149 0h-35.123v-35.61h35.123v35.61zm-35.123 0h-35.123v-35.61h35.123v35.61zm-175.667 0h-35.123v-35.61h35.123v35.61zm-35.123 0h-35.123v-35.61h35.123v35.61zm-35.123 0h-35.149v-35.61h35.149v35.61zm-105.421 0h-35.123v-35.61h35.123v35.61zm-35.123 0h-35.123v-35.61h35.123v35.61zm-70.247 0h-35.123v-35.61h35.123v35.61zm-35.123 0h-35.149v-35.61h35.123v35.61zm-105.395 0H352v-35.61h35.123v35.61zm-35.149 0h-35.123v-35.61H352v35.61zm-35.123 0h-35.123v-35.61h35.123v35.61zm-175.667 0h-35.123v-35.61h35.123v35.61zm-35.124 0H70.963v-35.61h35.123v35.61zM70.963 155.264H35.814v-35.61h35.149v35.61zm948.531-35.61h-35.123v-35.61h35.123v35.584zm-35.123 0h-35.123v-35.61h35.123v35.584zm-35.123 0h-35.149v-35.61h35.123v35.584zm-281.088 0h-35.123v-35.61h35.149v35.584zm-35.123 0h-35.123v-35.61h35.123v35.584zm-35.123 0h-35.123v-35.61h35.123v35.584zm-70.247 0h-35.123v-35.61h35.123v35.584zm-35.123 0h-35.149v-35.61h35.123v35.584z"/><path fill="#ecd979" d="M457.395 119.654h-35.123v-35.61h35.123v35.584zm-281.037 0h-35.123v-35.61h35.123v35.584zm-35.148 0h-35.123v-35.61h35.123v35.584zm-35.124 0H70.963v-35.61h35.123v35.584zM1124.89 84.045h-35.098V48.384h35.123v35.635zm-140.519 0h-35.123V48.384h35.123v35.635zm-35.123 0h-35.149V48.384h35.123v35.635zm-35.149 0h-35.123V48.384h35.123v35.635zm-245.939 0h-35.123V48.384h35.149v35.635zm-35.123 0h-35.123V48.384h35.123v35.635zm-140.493 0h-35.149V48.384h35.123v35.635z"/><path fill="#ecd979" d="M457.395 84.045h-35.123V48.384h35.123v35.635zm-245.913 0h-35.123V48.384h35.098v35.635zm-35.124 0h-35.123V48.384h35.123v35.635zm-35.148 0h-35.123V48.384h35.123v35.635zm983.68-35.635h-35.098V12.8h35.123v35.61zm-35.124 0h-35.149V12.8h35.149v35.61zm-140.518 0h-35.149V12.8h35.123v35.61zm-35.149 0h-35.123V12.8h35.123v35.61zm-35.123 0h-35.149V12.8h35.149v35.61zm-210.816 0h-35.123V12.8h35.149v35.61z"/><path fill="#ecd979" d="M457.395 48.41h-35.123V12.8h35.123v35.61zm-210.765 0h-35.174V12.8h35.149v35.61z"/><path fill="#ecd979" d="M211.482 48.41h-35.123V12.8h35.098v35.61zm-35.124 0h-35.123V12.8h35.123v35.61zm-140.518 0H.691V12.8H35.84v35.61z"/></svg>