<svg aria-hidden="true" style="position:absolute;width:0;height:0;overflow:hidden" xmlns="http://www.w3.org/2000/svg"><defs><symbol id="icon-arrow-btn" viewBox="0 0 45 32"><path fill="#ababab" style="fill:var(--color1, #ababab)" d="M0 0h45.176v32H0V0z"/><path fill="#1c2225" style="fill:var(--color2, #1c2225)" d="M-1383.529-8229.647h2409.412V2089.412h-2409.412V-8229.647z"/><path fill="#ecd979" style="fill:var(--color3, #ecd979)" d="M39.199 18.762a60.644 60.644 0 0 1-.476-4.927c-.031-1.468.025-2.739.167-3.812L3.182 30.639l-1.689-2.926L37.201 7.097c-1.027-.459-2.169-1.07-3.425-1.831a69.092 69.092 0 0 1-3.989-2.806l2.144-1.238c4.53 1.905 8.673 2.857 12.429 2.856l.724 1.254c-1.906 3.206-3.153 7.27-3.741 12.192l-2.144 1.238z"/><path fill="none" stroke="#fcf9f9" style="stroke:var(--color4, #fcf9f9)" stroke-width="1.882" d="M-154.353-29.176h259.765c15.074 0 27.294 12.22 27.294 27.294v37.647c0 15.074-12.22 27.294-27.294 27.294h-259.765c-15.074 0-27.294-12.22-27.294-27.294V-1.882c0-15.074 12.22-27.294 27.294-27.294z"/></symbol><symbol id="icon-menu-close" viewBox="0 0 32 32"><path d="M7.707 6.907c-.293.104-.747.583-.824.871-.137.509-.317.3 3.827 4.449L14.479 16l-3.769 3.773c-4.148 4.153-3.964 3.94-3.826 4.454.084.312.577.806.889.889.514.138.3.321 4.454-3.826L16 17.521l3.773 3.769c4.153 4.148 3.94 3.964 4.454 3.826.312-.084.806-.577.889-.889.138-.514.321-.3-3.826-4.454L17.521 16l3.769-3.773c4.148-4.153 3.964-3.94 3.826-4.454-.084-.312-.577-.806-.889-.889-.514-.138-.3-.321-4.454 3.826L16 14.479l-3.773-3.769c-4.212-4.207-3.967-4-4.52-3.804z"/></symbol><symbol id="icon-nav-menu-open" viewBox="0 0 32 32"><path stroke-linecap="round" stroke-width="2.182" d="M5.961 8.628H30.91M5.961 21.851H30.91M13.613 15.24h17.296"/></symbol><symbol id="icon-youtube-logo" viewBox="0 0 32 32"><path d="M24.24 6c-1.36-.08-4.16-.16-8.4-.16h-.56c-4.08 0-6.8.08-8.16.24-1.84.16-3.12.64-3.84 1.28-.64.56-1.12 1.6-1.28 2.96-.08.88-.16 2.72-.16 5.52v.4c0 2.64.08 4.48.24 5.36.24 1.28.64 2.24 1.44 2.8.8.64 2.16 1.04 4.08 1.2 1.36.08 4.16.16 8.4.16h.56c4.08 0 6.8-.08 8.16-.24 1.84-.16 3.12-.64 3.84-1.28.64-.56 1.12-1.6 1.28-2.96.08-.88.16-2.72.16-5.52v-.4c0-2.64-.08-4.48-.24-5.36-.24-1.28-.64-2.24-1.44-2.8-.8-.64-2.16-1.04-4.08-1.2zm-3.12 9.84-8.8 5.28V10.56l8.8 5.28z"/></symbol><symbol id="icon-inst-logo" viewBox="0 0 32 32"><path d="M28.718 10.756a9.264 9.264 0 0 0-.596-3.145 6.547 6.547 0 0 0-3.743-3.737 9.42 9.42 0 0 0-3.108-.596c-1.368-.061-1.801-.078-5.273-.078s-3.916 0-5.274.078a9.413 9.413 0 0 0-3.106.596 6.541 6.541 0 0 0-3.743 3.737 9.288 9.288 0 0 0-.596 3.101c-.061 1.367-.08 1.8-.08 5.265s0 3.909.08 5.265a9.335 9.335 0 0 0 .596 3.104 6.548 6.548 0 0 0 3.744 3.735 9.37 9.37 0 0 0 3.106.639c1.369.061 1.803.08 5.274.08s3.916 0 5.274-.08a9.362 9.362 0 0 0 3.108-.595 6.555 6.555 0 0 0 3.743-3.737 9.35 9.35 0 0 0 .596-3.104c.061-1.365.08-1.798.08-5.265-.003-3.466-.003-3.906-.082-5.264zM15.99 22.531c-3.631 0-6.572-2.936-6.572-6.561s2.941-6.561 6.572-6.561c3.628 0 6.572 2.936 6.572 6.561s-2.944 6.561-6.572 6.561zm6.834-11.835a1.53 1.53 0 1 1 0-3.06 1.53 1.53 0 1 1 0 3.06z"/><path d="M15.992 19.976a4.004 4.004 0 1 0 0-8.009 4.004 4.004 0 0 0 0 8.009z"/></symbol><symbol id="icon-fb-logo" viewBox="0 0 32 32"><path d="M19.52 4.64h.96v3.6h-1.2c-.48 0-.96 0-1.2.24s-.24.48-.24 1.04v1.28h2.64v3.04h-2.64v13.2h-4.08V13.76H11.6v-3.04h2.16V9.68c0-1.76.24-3.04.72-3.6.72-1.04 2.16-1.52 4.32-1.52.24.08.48.08.72.08z"/></symbol></defs></svg>