<svg aria-hidden="true" style="position:absolute;width:0;height:0;overflow:hidden" xmlns="http://www.w3.org/2000/svg"><defs>
<symbol id="icon-arrow-button" viewBox="0 0 45 32"><path d="M39.199 18.762a60.644 60.644 0 0 1-.476-4.927c-.031-1.468.025-2.739.167-3.812L3.182 30.639l-1.689-2.926L37.201 7.097c-1.027-.459-2.169-1.07-3.425-1.831a69.092 69.092 0 0 1-3.989-2.806l2.144-1.238c4.53 1.905 8.673 2.857 12.429 2.856l.724 1.254c-1.906 3.206-3.153 7.27-3.741 12.192l-2.144 1.238z"/></symbol>
<symbol id="icon-menu-close" viewBox="0 0 32 32"><path d="M7.707 6.907c-.293.104-.747.583-.824.871-.137.509-.317.3 3.827 4.449L14.479 16l-3.769 3.773c-4.148 4.153-3.964 3.94-3.826 4.454.084.312.577.806.889.889.514.138.3.321 4.454-3.826L16 17.521l3.773 3.769c4.153 4.148 3.94 3.964 4.454 3.826.312-.084.806-.577.889-.889.138-.514.321-.3-3.826-4.454L17.521 16l3.769-3.773c4.148-4.153 3.964-3.94 3.826-4.454-.084-.312-.577-.806-.889-.889-.514-.138-.3-.321-4.454 3.826L16 14.479l-3.773-3.769c-4.212-4.207-3.967-4-4.52-3.804z"/></symbol>
<symbol id="icon-nav-menu-open" viewBox="0 0 32 32"><path stroke-linecap="round" stroke-width="2.182" d="M5.961 8.628H30.91M5.961 21.851H30.91M13.613 15.24h17.296"/></symbol>
<symbol id="icon-hero-star" viewBox="0 0 32 32">
<path d="M15.434 0.333c0.115-0.197 0.325-0.328 0.566-0.328s0.451 0.13 0.565 0.325l0.002 0.003 1.84 3.203c0.115 0.197 0.325 0.327 0.566 0.327 0.138 0 0.265-0.043 0.371-0.115l-0.002 0.001 3.081-2.107c0.103-0.071 0.231-0.114 0.368-0.114 0.346 0 0.628 0.268 0.652 0.608l0 0.002 0.239 3.643c0.023 0.342 0.306 0.61 0.652 0.61 0.036 0 0.071-0.003 0.106-0.009l-0.004 0 3.69-0.585c0.031-0.005 0.067-0.008 0.103-0.008 0.361 0 0.653 0.292 0.653 0.653 0 0.090-0.018 0.175-0.051 0.253l0.002-0.004-1.386 3.359c-0.031 0.074-0.049 0.159-0.049 0.249 0 0.296 0.197 0.545 0.466 0.626l0.005 0.001 3.555 1.036c0.274 0.082 0.47 0.331 0.47 0.627 0 0.193-0.084 0.367-0.218 0.487l-0.001 0.001-2.731 2.433c-0.135 0.12-0.219 0.294-0.219 0.488s0.084 0.368 0.218 0.487l0.001 0.001 2.731 2.433c0.134 0.12 0.218 0.294 0.218 0.487 0 0.296-0.196 0.545-0.466 0.626l-0.005 0.001-3.555 1.036c-0.274 0.082-0.471 0.331-0.471 0.627 0 0.090 0.018 0.176 0.051 0.254l-0.002-0.004 1.386 3.359c0.031 0.074 0.050 0.16 0.050 0.25 0 0.361-0.292 0.653-0.653 0.653-0.036 0-0.072-0.003-0.106-0.009l0.004 0-3.69-0.585c-0.031-0.005-0.066-0.008-0.103-0.008-0.346 0-0.628 0.268-0.652 0.608l-0 0.002-0.239 3.643c-0.023 0.342-0.306 0.611-0.652 0.611-0.138 0-0.266-0.043-0.371-0.116l0.002 0.001-3.081-2.107c-0.103-0.071-0.231-0.114-0.368-0.114-0.241 0-0.451 0.13-0.564 0.324l-0.002 0.003-1.84 3.203c-0.115 0.197-0.325 0.328-0.566 0.328s-0.451-0.13-0.565-0.325l-0.002-0.003-1.84-3.203c-0.115-0.197-0.325-0.327-0.566-0.327-0.138 0-0.265 0.043-0.371 0.115l0.002-0.001-3.081 2.107c-0.103 0.071-0.231 0.114-0.368 0.114-0.346 0-0.628-0.268-0.652-0.608l-0-0.002-0.239-3.643c-0.023-0.342-0.306-0.61-0.652-0.61-0.036 0-0.071 0.003-0.106 0.009l0.004-0-3.69 0.584c-0.031 0.005-0.067 0.008-0.103 0.008-0.361 0-0.653-0.292-0.653-0.653 0-0.090 0.018-0.175 0.051-0.253l-0.002 0.004 1.386-3.359c0.031-0.074 0.049-0.159 0.049-0.249 0-0.296-0.197-0.545-0.466-0.626l-0.005-0.001-3.555-1.035c-0.274-0.082-0.471-0.331-0.471-0.627 0-0.194 0.084-0.368 0.218-0.487l0.001-0.001 2.731-2.433c0.135-0.12 0.219-0.294 0.219-0.488s-0.084-0.368-0.218-0.487l-0.001-0.001-2.731-2.433c-0.134-0.12-0.218-0.294-0.218-0.487 0-0.296 0.196-0.545 0.466-0.626l0.005-0.001 3.555-1.036c0.274-0.082 0.471-0.331 0.471-0.627 0-0.090-0.018-0.176-0.051-0.254l0.002 0.004-1.386-3.359c-0.031-0.074-0.050-0.16-0.050-0.25 0-0.361 0.292-0.653 0.653-0.653 0.036 0 0.072 0.003 0.106 0.009l-0.004-0 3.69 0.585c0.031 0.005 0.066 0.008 0.103 0.008 0.346 0 0.629-0.268 0.652-0.608l0-0.002 0.239-3.643c0.023-0.342 0.306-0.611 0.652-0.611 0.138 0 0.266 0.043 0.371 0.116l-0.002-0.001 3.080 2.107c0.103 0.071 0.231 0.114 0.368 0.114 0.241 0 0.451-0.13 0.564-0.324l0.002-0.003 1.84-3.204z"></path></symbol>
<symbol id="icon-youtube-logo" viewBox="0 0 32 32"><path d="M24.24 6c-1.36-.08-4.16-.16-8.4-.16h-.56c-4.08 0-6.8.08-8.16.24-1.84.16-3.12.64-3.84 1.28-.64.56-1.12 1.6-1.28 2.96-.08.88-.16 2.72-.16 5.52v.4c0 2.64.08 4.48.24 5.36.24 1.28.64 2.24 1.44 2.8.8.64 2.16 1.04 4.08 1.2 1.36.08 4.16.16 8.4.16h.56c4.08 0 6.8-.08 8.16-.24 1.84-.16 3.12-.64 3.84-1.28.64-.56 1.12-1.6 1.28-2.96.08-.88.16-2.72.16-5.52v-.4c0-2.64-.08-4.48-.24-5.36-.24-1.28-.64-2.24-1.44-2.8-.8-.64-2.16-1.04-4.08-1.2zm-3.12 9.84-8.8 5.28V10.56l8.8 5.28z"/></symbol>
<symbol id="icon-inst-logo" viewBox="0 0 32 32"><path d="M28.718 10.756a9.264 9.264 0 0 0-.596-3.145 6.547 6.547 0 0 0-3.743-3.737 9.42 9.42 0 0 0-3.108-.596c-1.368-.061-1.801-.078-5.273-.078s-3.916 0-5.274.078a9.413 9.413 0 0 0-3.106.596 6.541 6.541 0 0 0-3.743 3.737 9.288 9.288 0 0 0-.596 3.101c-.061 1.367-.08 1.8-.08 5.265s0 3.909.08 5.265a9.335 9.335 0 0 0 .596 3.104 6.548 6.548 0 0 0 3.744 3.735 9.37 9.37 0 0 0 3.106.639c1.369.061 1.803.08 5.274.08s3.916 0 5.274-.08a9.362 9.362 0 0 0 3.108-.595 6.555 6.555 0 0 0 3.743-3.737 9.35 9.35 0 0 0 .596-3.104c.061-1.365.08-1.798.08-5.265-.003-3.466-.003-3.906-.082-5.264zM15.99 22.531c-3.631 0-6.572-2.936-6.572-6.561s2.941-6.561 6.572-6.561c3.628 0 6.572 2.936 6.572 6.561s-2.944 6.561-6.572 6.561zm6.834-11.835a1.53 1.53 0 1 1 0-3.06 1.53 1.53 0 1 1 0 3.06z"/><path d="M15.992 19.976a4.004 4.004 0 1 0 0-8.009 4.004 4.004 0 0 0 0 8.009z"/></symbol>
<symbol id="icon-fb-logo" viewBox="0 0 32 32"><path d="M19.52 4.64h.96v3.6h-1.2c-.48 0-.96 0-1.2.24s-.24.48-.24 1.04v1.28h2.64v3.04h-2.64v13.2h-4.08V13.76H11.6v-3.04h2.16V9.68c0-1.76.24-3.04.72-3.6.72-1.04 2.16-1.52 4.32-1.52.24.08.48.08.72.08z"/></symbol></defs></svg>